<svg width="304" height="72" viewBox="0 0 304 72" fill="none" xmlns="http://www.w3.org/2000/svg">
  <rect width="304" height="72" rx="16" fill="white"/>
  <mask id="mask0_2_51" style="mask-type:alpha" maskUnits="userSpaceOnUse" x="36" y="16" width="40" height="40">
    <rect x="36" y="16" width="40" height="40" fill="#D9D9D9"/>
  </mask>
  <g mask="url(#mask0_2_51)">
    <path d="M48.7594 26.755L53.5695 20.5139C53.8843 20.1065 54.2531 19.8033 54.6761 19.6042C55.0989 19.4051 55.5411 19.3055 56.0024 19.3055C56.4638 19.3055 56.9051 19.4051 57.3264 19.6042C57.7477 19.8033 58.1157 20.1065 58.4306 20.5139L63.2406 26.755L70.5417 29.2083C71.2083 29.4306 71.7315 29.8182 72.1111 30.3711C72.4907 30.9241 72.6806 31.535 72.6806 32.2037C72.6806 32.5123 72.6363 32.8206 72.5477 33.1286C72.4591 33.4365 72.3136 33.7316 72.1111 34.0139L67.4167 40.7083L67.5833 47.7917C67.5926 48.6898 67.2917 49.4491 66.6806 50.0695C66.0694 50.6898 65.3456 51 64.509 51C64.4567 51 64.1806 50.9583 63.6806 50.875L56 48.7361L48.3255 50.8729C48.1826 50.9298 48.0323 50.9653 47.8747 50.9792C47.7171 50.9931 47.5727 51 47.4413 51C46.6008 51 45.8796 50.6881 45.2778 50.0643C44.6759 49.4404 44.3889 48.6736 44.4167 47.7639L44.5833 40.6597L39.9028 33.9861C39.7003 33.7022 39.5548 33.4054 39.4662 33.0957C39.3776 32.7861 39.3333 32.4764 39.3333 32.1667C39.3333 31.5093 39.5201 30.9087 39.8936 30.3651C40.2671 29.8215 40.7886 29.4359 41.4583 29.2083L48.7594 26.755Z" fill="#F2CB05"/>
  </g>
  <mask id="mask1_2_51" style="mask-type:alpha" maskUnits="userSpaceOnUse" x="84" y="16" width="40" height="40">
    <rect x="84" y="16" width="40" height="40" fill="#D9D9D9"/>
  </mask>
  <g mask="url(#mask1_2_51)">
    <path d="M96.7594 26.755L101.569 20.5139C101.884 20.1065 102.253 19.8033 102.676 19.6042C103.099 19.4051 103.541 19.3055 104.002 19.3055C104.464 19.3055 104.905 19.4051 105.326 19.6042C105.748 19.8033 106.116 20.1065 106.431 20.5139L111.241 26.755L118.542 29.2083C119.208 29.4306 119.731 29.8182 120.111 30.3711C120.491 30.9241 120.681 31.535 120.681 32.2037C120.681 32.5123 120.636 32.8206 120.548 33.1286C120.459 33.4365 120.314 33.7316 120.111 34.0139L115.417 40.7083L115.583 47.7917C115.593 48.6898 115.292 49.4491 114.681 50.0695C114.069 50.6898 113.346 51 112.509 51C112.457 51 112.181 50.9583 111.681 50.875L104 48.7361L96.3254 50.8729C96.1825 50.9298 96.0323 50.9653 95.8747 50.9792C95.7171 50.9931 95.5726 51 95.4413 51C94.6008 51 93.8796 50.6881 93.2778 50.0643C92.6759 49.4404 92.3889 48.6736 92.4166 47.7639L92.5833 40.6597L87.9028 33.9861C87.7003 33.7022 87.5547 33.4054 87.4662 33.0957C87.3776 32.7861 87.3333 32.4764 87.3333 32.1667C87.3333 31.5093 87.52 30.9087 87.8935 30.3651C88.267 29.8215 88.7886 29.4359 89.4583 29.2083L96.7594 26.755Z" fill="#F2CB05"/>
  </g>
  <mask id="mask2_2_51" style="mask-type:alpha" maskUnits="userSpaceOnUse" x="132" y="16" width="40" height="40">
    <rect x="132" y="16" width="40" height="40" fill="#D9D9D9"/>
  </mask>
  <g mask="url(#mask2_2_51)">
    <path d="M144.759 26.755L149.569 20.5139C149.884 20.1065 150.253 19.8033 150.676 19.6042C151.099 19.4051 151.541 19.3055 152.002 19.3055C152.464 19.3055 152.905 19.4051 153.326 19.6042C153.748 19.8033 154.116 20.1065 154.431 20.5139L159.241 26.755L166.542 29.2083C167.208 29.4306 167.731 29.8182 168.111 30.3711C168.491 30.9241 168.681 31.535 168.681 32.2037C168.681 32.5123 168.636 32.8206 168.548 33.1286C168.459 33.4365 168.314 33.7316 168.111 34.0139L163.417 40.7083L163.583 47.7917C163.593 48.6898 163.292 49.4491 162.681 50.0695C162.069 50.6898 161.346 51 160.509 51C160.457 51 160.181 50.9583 159.681 50.875L152 48.7361L144.325 50.8729C144.183 50.9298 144.032 50.9653 143.875 50.9792C143.717 50.9931 143.573 51 143.441 51C142.601 51 141.88 50.6881 141.278 50.0643C140.676 49.4404 140.389 48.6736 140.417 47.7639L140.583 40.6597L135.903 33.9861C135.7 33.7022 135.555 33.4054 135.466 33.0957C135.378 32.7861 135.333 32.4764 135.333 32.1667C135.333 31.5093 135.52 30.9087 135.894 30.3651C136.267 29.8215 136.789 29.4359 137.458 29.2083L144.759 26.755Z" fill="#F2CB05"/>
  </g>
  <mask id="mask3_2_51" style="mask-type:alpha" maskUnits="userSpaceOnUse" x="180" y="16" width="40" height="40">
    <rect x="180" y="16" width="40" height="40" fill="#D9D9D9"/>
  </mask>
  <g mask="url(#mask3_2_51)">
    <path d="M192.759 26.755L197.569 20.5139C197.884 20.1065 198.253 19.8033 198.676 19.6042C199.099 19.4051 199.541 19.3055 200.002 19.3055C200.464 19.3055 200.905 19.4051 201.326 19.6042C201.748 19.8033 202.116 20.1065 202.431 20.5139L207.241 26.755L214.542 29.2083C215.208 29.4306 215.731 29.8182 216.111 30.3711C216.491 30.9241 216.681 31.535 216.681 32.2037C216.681 32.5123 216.636 32.8206 216.548 33.1286C216.459 33.4365 216.314 33.7316 216.111 34.0139L211.417 40.7083L211.583 47.7917C211.593 48.6898 211.292 49.4491 210.681 50.0695C210.069 50.6898 209.346 51 208.509 51C208.457 51 208.181 50.9583 207.681 50.875L200 48.7361L192.325 50.8729C192.183 50.9298 192.032 50.9653 191.875 50.9792C191.717 50.9931 191.573 51 191.441 51C190.601 51 189.88 50.6881 189.278 50.0643C188.676 49.4404 188.389 48.6736 188.417 47.7639L188.583 40.6597L183.903 33.9861C183.7 33.7022 183.555 33.4054 183.466 33.0957C183.378 32.7861 183.333 32.4764 183.333 32.1667C183.333 31.5093 183.52 30.9087 183.894 30.3651C184.267 29.8215 184.789 29.4359 185.458 29.2083L192.759 26.755Z" fill="#F2CB05"/>
  </g>
  <mask id="mask4_2_51" style="mask-type:alpha" maskUnits="userSpaceOnUse" x="228" y="16" width="40" height="40">
    <rect x="228" y="16" width="40" height="40" fill="#D9D9D9"/>
  </mask>
  <g mask="url(#mask4_2_51)">
    <path d="M240.759 26.755L245.569 20.5139C245.884 20.1065 246.253 19.8033 246.676 19.6042C247.099 19.4051 247.541 19.3055 248.002 19.3055C248.464 19.3055 248.905 19.4051 249.326 19.6042C249.748 19.8033 250.116 20.1065 250.431 20.5139L255.241 26.755L262.542 29.2083C263.208 29.4306 263.731 29.8182 264.111 30.3711C264.491 30.9241 264.681 31.535 264.681 32.2037C264.681 32.5123 264.636 32.8206 264.548 33.1286C264.459 33.4365 264.314 33.7316 264.111 34.0139L259.417 40.7083L259.583 47.7917C259.593 48.6898 259.292 49.4491 258.681 50.0695C258.069 50.6898 257.346 51 256.509 51C256.457 51 256.181 50.9583 255.681 50.875L248 48.7361L240.325 50.8729C240.183 50.9298 240.032 50.9653 239.875 50.9792C239.717 50.9931 239.573 51 239.441 51C238.601 51 237.88 50.6881 237.278 50.0643C236.676 49.4404 236.389 48.6736 236.417 47.7639L236.583 40.6597L231.903 33.9861C231.7 33.7022 231.555 33.4054 231.466 33.0957C231.378 32.7861 231.333 32.4764 231.333 32.1667C231.333 31.5093 231.52 30.9087 231.894 30.3651C232.267 29.8215 232.789 29.4359 233.458 29.2083L240.759 26.755Z" fill="#F2CB05"/>
  </g>
</svg>
